<svg xmlns="http://www.w3.org/2000/svg" xmlns:xlink="http://www.w3.org/1999/xlink" width="1200" height="651.3"><rect width="1200" height="651.3" rx="0" ry="0" class="a"/><svg height="651.3" viewBox="0 0 120 65.13" width="1200" xmlns="http://www.w3.org/2000/svg" xmlns:xlink="http://www.w3.org/1999/xlink"><style>@keyframes j{0%{transform:translateX(-600px)}6.5%{transform:translateX(-720px)}6.7%{transform:translateX(-840px)}6.9%{transform:translateX(-960px)}16.9%{transform:translateX(-1080px)}17%{transform:translateX(-1200px)}27.1%{transform:translateX(-1320px)}27.2%{transform:translateX(-1440px)}37.3%{transform:translateX(-1560px)}37.4%{transform:translateX(-1680px)}43.2%{transform:translateX(-1800px)}47.7%{transform:translateX(-1920px)}79.4%{transform:translateX(-2040px)}79.6%{transform:translateX(-2160px)}87.2%{transform:translateX(-2280px)}87.4%{transform:translateX(-2400px)}91.7%{transform:translateX(-2520px)}91.9%{transform:translateX(-2640px)}92%{transform:translateX(-2760px)}92.2%{transform:translateX(-2880px)}92.3%{transform:translateX(-3000px)}92.5%{transform:translateX(-3120px)}92.6%{transform:translateX(-3240px)}92.8%{transform:translateX(-3360px)}93%{transform:translateX(-3480px)}93.1%{transform:translateX(-3600px)}93.3%{transform:translateX(-3720px)}93.4%{transform:translateX(-3840px)}93.6%{transform:translateX(-3960px)}93.8%{transform:translateX(-4200px)}93.9%{transform:translateX(-4320px)}94.1%{transform:translateX(-4440px)}99.7%{transform:translateX(-4560px)}99.8%{transform:translateX(-4680px)}to{transform:translateX(-4800px)}}.a{fill:#282d35}.c,.d,.e,.f{fill:#b9c0cb;white-space:pre}.d,.e,.f{fill:#dbab79}.e,.f{fill:#b9bfca}.f{fill:#a8cc8c}.g{fill:#66c2cd}</style><g font-family="Monaco,Consolas,Menlo,'Bitstream Vera Sans Mono','Powerline Symbols',monospace" font-size="1.67"><defs><symbol id="1"><text y="1.67" class="c">Windows</text><text x="8.016" y="1.67" class="c">PowerShell</text></symbol><symbol id="2"><text y="1.67" class="c">Copyright</text><text x="10.02" y="1.67" class="c">(C)</text><text x="14.028" y="1.67" class="c">Microsoft</text><text x="24.048" y="1.67" class="c">Corporation.</text><text x="37.074" y="1.67" class="c">All</text><text x="41.082" y="1.67" class="c">rights</text><text x="48.096" y="1.67" class="c">reserved.</text></symbol><symbol id="3"><text y="1.67" class="c">Install</text><text x="8.016" y="1.67" class="c">the</text><text x="12.024" y="1.67" class="c">latest</text><text x="19.038" y="1.67" class="c">PowerShell</text><text x="30.06" y="1.67" class="c">for</text><text x="34.068" y="1.67" class="c">new</text><text x="38.076" y="1.67" class="c">features</text><text x="47.094" y="1.67" class="c">and</text><text x="51.102" y="1.67" class="c">improvements!</text><text x="65.13" y="1.67" class="c">https://aka.ms/PSWindows</text></symbol><symbol id="4"><text y="1.67" class="c">PS</text><text x="3.006" y="1.67" class="c">C:\Users\aaron\Downloads&gt;</text><text x="29.058" y="1.67" class="d">.\openasar_installer.bat</text><text x="53.106" y="1.67" class="e">;</text><text x="55.11" y="1.67" class="f">exit</text></symbol><symbol id="5"><text y="1.67" class="c">Installer</text><text x="10.02" y="1.67" class="c">updated</text><text x="18.036" y="1.67" class="c">and</text><text x="22.044" y="1.67" class="c">maintained</text><text x="33.066" y="1.67" class="c">by</text><text x="36.072" y="1.67" class="c">GreenMan36#0633</text></symbol><symbol id="6"><text y="1.67" class="c">Select</text><text x="7.014" y="1.67" class="c">Discord</text><text x="15.03" y="1.67" class="c">version:</text></symbol><symbol id="7"><text y="1.67" class="c">1.</text><text x="3.006" y="1.67" class="c">Discord</text><text x="11.022" y="1.67" class="c">Stable</text><text x="18.036" y="1.67" class="c">(Default</text><text x="27.054" y="1.67" class="c">Client)</text></symbol><symbol id="8"><text y="1.67" class="c">2.</text><text x="3.006" y="1.67" class="c">Discord</text><text x="11.022" y="1.67" class="c">PTB</text></symbol><symbol id="9"><text y="1.67" class="c">3.</text><text x="3.006" y="1.67" class="c">Discord</text><text x="11.022" y="1.67" class="c">Canary</text></symbol><symbol id="10"><text y="1.67" class="c">Enter</text><text x="6.012" y="1.67" class="c">the</text><text x="10.02" y="1.67" class="c">number</text><text x="17.034" y="1.67" class="c">corresponding</text><text x="31.062" y="1.67" class="c">to</text><text x="34.068" y="1.67" class="c">your</text><text x="39.078" y="1.67" class="c">selection:</text><text x="50.1" y="1.67" class="c">1</text></symbol><symbol id="11"><path class="g" d="M0 0h120v2.171H0z"/><text y="1.67" class="d"></text></symbol><symbol id="12"><path class="g" d="M0 0h120v2.171H0z"/><text y="1.67" class="d">Installer updated and maintained by GreenMan36#0633</text></symbol><symbol id="13"><path class="g" d="M0 0h120v2.171H0z"/><text y="1.67" class="d">Confirm the following information before continuing.</text></symbol><symbol id="14"><path class="g" d="M0 0h120v2.171H0z"/><text y="1.67" class="d">Version: Discord</text></symbol><symbol id="15"><path class="g" d="M0 0h120v2.171H0z"/><text y="1.67" class="d">App version: 1.0.9013</text></symbol><symbol id="16"><path class="g" d="M0 0h120v2.171H0z"/><text y="1.67" class="d">Full path: C:\Users\aaron\AppData\Local\Discord\app-1.0.9013\resources\</text></symbol><symbol id="17"><path class="g" d="M0 0h120v2.171H0z"/><text y="1.67" class="d">Press any key to continue . . .</text></symbol><symbol id="18"><path class="g" d="M0 0h120v2.171H0z"/><text y="1.67" class="d">Installing OpenAsar... (ignore any flashes, this is a download progress bar)</text></symbol><symbol id="19"><path class="g" d="M0 0h120v2.171H0z"/><text y="1.67" class="d">1. Backing up original app.asar to app.asar.backup</text></symbol><symbol id="20"><path class="g" d="M0 0h120v2.171H0z"/><text y="1.67" class="d">2. Downloading OpenAsar</text></symbol><symbol id="21"><path class="g" d="M0 0h120v2.171H0z"/><text y="1.67" class="d"></text></symbol><symbol id="22"><path class="g" d="M0 0h120v2.171H0z"/><text y="1.67" class="d">Writing web request</text></symbol><symbol id="23"><text y="1.67" class="f">Opening</text><text x="8.016" y="1.67" class="f">Discord...</text></symbol><symbol id="24"><text y="1.67" class="f">OpenAsar</text><text x="9.018" y="1.67" class="f">should</text><text x="16.032" y="1.67" class="f">be</text><text x="19.038" y="1.67" class="f">installed</text><text x="29.058" y="1.67" class="f">You</text><text x="33.066" y="1.67" class="f">can</text><text x="37.074" y="1.67" class="f">check</text><text x="43.086" y="1.67" class="f">by</text><text x="46.092" y="1.67" class="f">looking</text><text x="54.108" y="1.67" class="f">for</text><text x="58.116" y="1.67" class="f">an</text><text x="61.122" y="1.67" class="f">&quot;OpenAsar&quot;</text><text x="72.144" y="1.67" class="f">option</text><text x="79.158" y="1.67" class="f">in</text><text x="82.164" y="1.67" class="f">your</text><text x="87.174" y="1.67" class="f">Discord</text><text x="95.19" y="1.67" class="f">settings.</text></symbol><symbol id="25"><text y="1.67" class="f">Not</text><text x="4.008" y="1.67" class="f">installed?</text><text x="15.03" y="1.67" class="f">Try</text><text x="19.038" y="1.67" class="f">restarting</text><text x="30.06" y="1.67" class="f">Discord,</text><text x="39.078" y="1.67" class="f">running</text><text x="47.094" y="1.67" class="f">the</text><text x="51.102" y="1.67" class="f">script</text><text x="58.116" y="1.67" class="f">again,</text><text x="65.13" y="1.67" class="f">joining</text><text x="73.146" y="1.67" class="f">the</text><text x="77.154" y="1.67" class="f">OpenAsar</text><text x="86.172" y="1.67" class="f">Discord</text><text x="94.188" y="1.67" class="f">or</text><text x="97.194" y="1.67" class="f">contacting</text><text x="108.216" y="1.67" class="f">GreenMan36#0</text></symbol><symbol id="26"><text y="1.67" class="f">633</text><text x="4.008" y="1.67" class="f">on</text><text x="7.014" y="1.67" class="f">Discord.</text></symbol><symbol id="27"><text y="1.67" class="f">Installer</text><text x="10.02" y="1.67" class="f">updated</text><text x="18.036" y="1.67" class="f">and</text><text x="22.044" y="1.67" class="f">maintained</text><text x="33.066" y="1.67" class="f">by</text><text x="36.072" y="1.67" class="f">GreenMan36#0633</text></symbol><symbol id="28"><text y="1.67" class="f">Also</text><text x="5.01" y="1.67" class="f">check</text><text x="11.022" y="1.67" class="f">out</text><text x="15.03" y="1.67" class="f">some</text><text x="20.04" y="1.67" class="f">of</text><text x="23.046" y="1.67" class="f">my</text><text x="26.052" y="1.67" class="f">other</text><text x="32.064" y="1.67" class="f">projects</text><text x="41.082" y="1.67" class="f">at</text><text x="44.088" y="1.67" class="f">[GreenMan36.github.io](https://GreenMan36.github.io)</text></symbol><symbol id="29"><text y="1.67" class="f">Press</text><text x="6.012" y="1.67" class="f">any</text><text x="10.02" y="1.67" class="f">key</text><text x="14.028" y="1.67" class="f">to</text><text x="17.034" y="1.67" class="f">continue</text><text x="26.052" y="1.67" class="f">.</text><text x="28.056" y="1.67" class="f">.</text><text x="30.06" y="1.67" class="f">.</text></symbol><symbol id="a"><path fill="transparent" d="M0 0h120v30H0z"/></symbol><symbol id="b"><path fill="#6f7683" d="M0 0h1.102v2.171H0z"/></symbol></defs><path class="a" d="M0 0h120v65.13H0z"/><g style="animation-duration:9.727791786193848s;animation-iteration-count:infinite;animation-name:j;animation-timing-function:steps(1,end)"><svg width="4920"><svg><use xlink:href="#a"/><use xlink:href="#b" x="-.004"/></svg><svg x="120"><use xlink:href="#a"/><use xlink:href="#b" x="-.004" y="10.83"/><use xlink:href="#1"/><use xlink:href="#2" y="2.171"/><use xlink:href="#3" y="6.513"/></svg><svg x="240"><use xlink:href="#a"/><use xlink:href="#b" x="28.996" y="10.83"/><use xlink:href="#1"/><use xlink:href="#2" y="2.171"/><use xlink:href="#3" y="6.513"/><text y="12.525" class="c">PS</text><text x="3.006" y="12.525" class="c">C:\Users\aaron\Downloads&gt;</text></svg><svg x="360"><use xlink:href="#a"/><use xlink:href="#b" x="53.996" y="10.83"/><use xlink:href="#1"/><use xlink:href="#2" y="2.171"/><use xlink:href="#3" y="6.513"/><text y="12.525" class="c">PS</text><text x="3.006" y="12.525" class="c">C:\Users\aaron\Downloads&gt;</text><text x="29.058" y="12.525" class="d">.\openasar_installer.bat</text><text x="53.106" y="12.525" class="e">;</text></svg><svg x="480"><use xlink:href="#a"/><use xlink:href="#b" x="58.996" y="10.83"/><use xlink:href="#1"/><use xlink:href="#2" y="2.171"/><use xlink:href="#3" y="6.513"/><use xlink:href="#4" y="10.855"/></svg><svg x="600"><use xlink:href="#a"/><use xlink:href="#b" x="58.996" y="10.83"/><use xlink:href="#1"/><use xlink:href="#2" y="2.171"/><use xlink:href="#3" y="6.513"/><use xlink:href="#4" y="10.855"/></svg><svg x="720"><use xlink:href="#a"/><use xlink:href="#b" x="-.004" y="13.001"/><use xlink:href="#1"/><use xlink:href="#2" y="2.171"/><use xlink:href="#3" y="6.513"/><use xlink:href="#4" y="10.855"/></svg><svg x="840"><use xlink:href="#a"/><use xlink:href="#b" x="-.004" y="13.001"/></svg><svg x="960"><use xlink:href="#a"/><use xlink:href="#b" x="-.004" y="19.514"/><use xlink:href="#5" y="2.171"/><text y="8.183" class="c">####</text><text x="6.012" y="8.183" class="c">###</text><text x="11.022" y="8.183" class="c">####</text><text x="16.032" y="8.183" class="c">#</text><text x="20.04" y="8.183" class="c">#</text><text x="27.054" y="8.183" class="c">##</text><text x="31.062" y="8.183" class="c">####</text><text x="37.074" y="8.183" class="c">##</text><text x="41.082" y="8.183" class="c">###</text><text y="10.354" class="c">#</text><text x="3.006" y="10.354" class="c">#</text><text x="6.012" y="10.354" class="c">#</text><text x="9.018" y="10.354" class="c">#</text><text x="11.022" y="10.354" class="c">#</text><text x="16.032" y="10.354" class="c">##</text><text x="20.04" y="10.354" class="c">#</text><text x="26.052" y="10.354" class="c">#</text><text x="29.058" y="10.354" class="c">#</text><text x="31.062" y="10.354" class="c">#</text><text x="36.072" y="10.354" class="c">#</text><text x="39.078" y="10.354" class="c">#</text><text x="41.082" y="10.354" class="c">#</text><text x="44.088" y="10.354" class="c">#</text><text y="12.525" class="c">#</text><text x="3.006" y="12.525" class="c">#</text><text x="6.012" y="12.525" class="c">###</text><text x="11.022" y="12.525" class="c">####</text><text x="16.032" y="12.525" class="c">#</text><text x="18.036" y="12.525" class="c">#</text><text x="20.04" y="12.525" class="c">#</text><text x="26.052" y="12.525" class="c">####</text><text x="31.062" y="12.525" class="c">####</text><text x="36.072" y="12.525" class="c">####</text><text x="41.082" y="12.525" class="c">###</text><text y="14.696" class="c">#</text><text x="3.006" y="14.696" class="c">#</text><text x="6.012" y="14.696" class="c">#</text><text x="11.022" y="14.696" class="c">#</text><text x="16.032" y="14.696" class="c">#</text><text x="19.038" y="14.696" class="c">##</text><text x="26.052" y="14.696" class="c">#</text><text x="29.058" y="14.696" class="c">#</text><text x="34.068" y="14.696" class="c">#</text><text x="36.072" y="14.696" class="c">#</text><text x="39.078" y="14.696" class="c">#</text><text x="41.082" y="14.696" class="c">#</text><text x="44.088" y="14.696" class="c">#</text><text y="16.867" class="c">####</text><text x="6.012" y="16.867" class="c">#</text><text x="11.022" y="16.867" class="c">####</text><text x="16.032" y="16.867" class="c">#</text><text x="20.04" y="16.867" class="c">#</text><text x="23.046" y="16.867" class="c">#</text><text x="26.052" y="16.867" class="c">#</text><text x="29.058" y="16.867" class="c">#</text><text x="31.062" y="16.867" class="c">####</text><text x="36.072" y="16.867" class="c">#</text><text x="39.078" y="16.867" class="c">#</text><text x="41.082" y="16.867" class="c">#</text><text x="44.088" y="16.867" class="c">#</text></svg><svg x="1080"><use xlink:href="#a"/><use xlink:href="#b" x="-.004" y="19.514"/></svg><svg x="1200"><use xlink:href="#a"/><use xlink:href="#b" x="-.004" y="19.514"/><use xlink:href="#5" y="2.171"/><text y="8.183" class="c">====</text><text x="6.012" y="8.183" class="c">===</text><text x="11.022" y="8.183" class="c">====</text><text x="16.032" y="8.183" class="c">=</text><text x="20.04" y="8.183" class="c">=</text><text x="27.054" y="8.183" class="c">==</text><text x="31.062" y="8.183" class="c">====</text><text x="37.074" y="8.183" class="c">==</text><text x="41.082" y="8.183" class="c">===</text><text y="10.354" class="c">=</text><text x="3.006" y="10.354" class="c">=</text><text x="6.012" y="10.354" class="c">=</text><text x="9.018" y="10.354" class="c">=</text><text x="11.022" y="10.354" class="c">=</text><text x="16.032" y="10.354" class="c">==</text><text x="20.04" y="10.354" class="c">=</text><text x="26.052" y="10.354" class="c">=</text><text x="29.058" y="10.354" class="c">=</text><text x="31.062" y="10.354" class="c">=</text><text x="36.072" y="10.354" class="c">=</text><text x="39.078" y="10.354" class="c">=</text><text x="41.082" y="10.354" class="c">=</text><text x="44.088" y="10.354" class="c">=</text><text y="12.525" class="c">=</text><text x="3.006" y="12.525" class="c">=</text><text x="6.012" y="12.525" class="c">===</text><text x="11.022" y="12.525" class="c">====</text><text x="16.032" y="12.525" class="c">=</text><text x="18.036" y="12.525" class="c">=</text><text x="20.04" y="12.525" class="c">=</text><text x="26.052" y="12.525" class="c">====</text><text x="31.062" y="12.525" class="c">====</text><text x="36.072" y="12.525" class="c">====</text><text x="41.082" y="12.525" class="c">===</text><text y="14.696" class="c">=</text><text x="3.006" y="14.696" class="c">=</text><text x="6.012" y="14.696" class="c">=</text><text x="11.022" y="14.696" class="c">=</text><text x="16.032" y="14.696" class="c">=</text><text x="19.038" y="14.696" class="c">==</text><text x="26.052" y="14.696" class="c">=</text><text x="29.058" y="14.696" class="c">=</text><text x="34.068" y="14.696" class="c">=</text><text x="36.072" y="14.696" class="c">=</text><text x="39.078" y="14.696" class="c">=</text><text x="41.082" y="14.696" class="c">=</text><text x="44.088" y="14.696" class="c">=</text><text y="16.867" class="c">====</text><text x="6.012" y="16.867" class="c">=</text><text x="11.022" y="16.867" class="c">====</text><text x="16.032" y="16.867" class="c">=</text><text x="20.04" y="16.867" class="c">=</text><text x="23.046" y="16.867" class="c">=</text><text x="26.052" y="16.867" class="c">=</text><text x="29.058" y="16.867" class="c">=</text><text x="31.062" y="16.867" class="c">====</text><text x="36.072" y="16.867" class="c">=</text><text x="39.078" y="16.867" class="c">=</text><text x="41.082" y="16.867" class="c">=</text><text x="44.088" y="16.867" class="c">=</text></svg><svg x="1320"><use xlink:href="#a"/><use xlink:href="#b" x="-.004" y="19.514"/></svg><svg x="1440"><use xlink:href="#a"/><use xlink:href="#b" x="-.004" y="19.514"/><use xlink:href="#5" y="2.171"/><text y="8.183" class="c">....</text><text x="6.012" y="8.183" class="c">...</text><text x="11.022" y="8.183" class="c">....</text><text x="16.032" y="8.183" class="c">.</text><text x="20.04" y="8.183" class="c">.</text><text x="27.054" y="8.183" class="c">..</text><text x="31.062" y="8.183" class="c">....</text><text x="37.074" y="8.183" class="c">..</text><text x="41.082" y="8.183" class="c">...</text><text y="10.354" class="c">.</text><text x="3.006" y="10.354" class="c">.</text><text x="6.012" y="10.354" class="c">.</text><text x="9.018" y="10.354" class="c">.</text><text x="11.022" y="10.354" class="c">.</text><text x="16.032" y="10.354" class="c">..</text><text x="20.04" y="10.354" class="c">.</text><text x="26.052" y="10.354" class="c">.</text><text x="29.058" y="10.354" class="c">.</text><text x="31.062" y="10.354" class="c">.</text><text x="36.072" y="10.354" class="c">.</text><text x="39.078" y="10.354" class="c">.</text><text x="41.082" y="10.354" class="c">.</text><text x="44.088" y="10.354" class="c">.</text><text y="12.525" class="c">.</text><text x="3.006" y="12.525" class="c">.</text><text x="6.012" y="12.525" class="c">...</text><text x="11.022" y="12.525" class="c">....</text><text x="16.032" y="12.525" class="c">.</text><text x="18.036" y="12.525" class="c">.</text><text x="20.04" y="12.525" class="c">.</text><text x="26.052" y="12.525" class="c">....</text><text x="31.062" y="12.525" class="c">....</text><text x="36.072" y="12.525" class="c">....</text><text x="41.082" y="12.525" class="c">...</text><text y="14.696" class="c">.</text><text x="3.006" y="14.696" class="c">.</text><text x="6.012" y="14.696" class="c">.</text><text x="11.022" y="14.696" class="c">.</text><text x="16.032" y="14.696" class="c">.</text><text x="19.038" y="14.696" class="c">..</text><text x="26.052" y="14.696" class="c">.</text><text x="29.058" y="14.696" class="c">.</text><text x="34.068" y="14.696" class="c">.</text><text x="36.072" y="14.696" class="c">.</text><text x="39.078" y="14.696" class="c">.</text><text x="41.082" y="14.696" class="c">.</text><text x="44.088" y="14.696" class="c">.</text><text y="16.867" class="c">....</text><text x="6.012" y="16.867" class="c">.</text><text x="11.022" y="16.867" class="c">....</text><text x="16.032" y="16.867" class="c">.</text><text x="20.04" y="16.867" class="c">.</text><text x="23.046" y="16.867" class="c">.</text><text x="26.052" y="16.867" class="c">.</text><text x="29.058" y="16.867" class="c">.</text><text x="31.062" y="16.867" class="c">....</text><text x="36.072" y="16.867" class="c">.</text><text x="39.078" y="16.867" class="c">.</text><text x="41.082" y="16.867" class="c">.</text><text x="44.088" y="16.867" class="c">.</text></svg><svg x="1560"><use xlink:href="#a"/><use xlink:href="#b" x="-.004" y="19.514"/></svg><svg x="1680"><use xlink:href="#a"/><use xlink:href="#b" x="49.996" y="17.343"/><use xlink:href="#5" y="2.171"/><use xlink:href="#6" y="6.513"/><use xlink:href="#7" y="8.684"/><use xlink:href="#8" y="10.855"/><use xlink:href="#9" y="13.026"/><text y="19.038" class="c">Enter</text><text x="6.012" y="19.038" class="c">the</text><text x="10.02" y="19.038" class="c">number</text><text x="17.034" y="19.038" class="c">corresponding</text><text x="31.062" y="19.038" class="c">to</text><text x="34.068" y="19.038" class="c">your</text><text x="39.078" y="19.038" class="c">selection:</text></svg><svg x="1800"><use xlink:href="#a"/><use xlink:href="#b" x="50.996" y="17.343"/><use xlink:href="#5" y="2.171"/><use xlink:href="#6" y="6.513"/><use xlink:href="#7" y="8.684"/><use xlink:href="#8" y="10.855"/><use xlink:href="#9" y="13.026"/><use xlink:href="#10" y="17.368"/></svg><svg x="1920"><use xlink:href="#a"/><use xlink:href="#b" x="-.004" y="26.027"/><use xlink:href="#5" y="2.171"/><use xlink:href="#6" y="6.513"/><use xlink:href="#7" y="8.684"/><use xlink:href="#8" y="10.855"/><use xlink:href="#9" y="13.026"/><use xlink:href="#10" y="17.368"/><text y="23.38" class="c">Closing</text><text x="8.016" y="23.38" class="c">Discord...</text><text x="19.038" y="23.38" class="c">(wait</text><text x="25.05" y="23.38" class="c">around</text><text x="32.064" y="23.38" class="c">3</text><text x="34.068" y="23.38" class="c">seconds)</text></svg><svg x="2040"><use xlink:href="#a"/><use xlink:href="#b" x="-.004" y="26.027"/></svg><svg x="2160"><use xlink:href="#a"/><use xlink:href="#b" x="31.996" y="19.514"/><use xlink:href="#5" y="2.171"/><text y="8.183" class="c">Confirm</text><text x="8.016" y="8.183" class="c">the</text><text x="12.024" y="8.183" class="c">following</text><text x="22.044" y="8.183" class="c">information</text><text x="34.068" y="8.183" class="c">before</text><text x="41.082" y="8.183" class="c">continuing.</text><text y="12.525" class="c">Version:</text><text x="9.018" y="12.525" class="c">Discord</text><text y="14.696" class="c">App</text><text x="4.008" y="14.696" class="c">version:</text><text x="13.026" y="14.696" class="c">1.0.9013</text><text y="16.867" class="c">Full</text><text x="5.01" y="16.867" class="c">path:</text><text x="11.022" y="16.867" class="c">C:\Users\aaron\AppData\Local\Discord\app-1.0.9013\resources\</text><text y="21.209" class="c">Press</text><text x="6.012" y="21.209" class="c">any</text><text x="10.02" y="21.209" class="c">key</text><text x="14.028" y="21.209" class="c">to</text><text x="17.034" y="21.209" class="c">continue</text><text x="26.052" y="21.209" class="c">.</text><text x="28.056" y="21.209" class="c">.</text><text x="30.06" y="21.209" class="c">.</text></svg><svg x="2280"><use xlink:href="#a"/><use xlink:href="#b" x="-.004" y="30.369"/><use xlink:href="#11"/><use xlink:href="#12" y="2.171"/><use xlink:href="#11" y="4.342"/><use xlink:href="#13" y="6.513"/><use xlink:href="#11" y="8.684"/><use xlink:href="#14" y="10.855"/><use xlink:href="#15" y="13.026"/><use xlink:href="#16" y="15.197"/><use xlink:href="#11" y="17.368"/><use xlink:href="#17" y="19.539"/><use xlink:href="#18" y="21.71"/><use xlink:href="#11" y="23.881"/><use xlink:href="#19" y="26.052"/><use xlink:href="#20" y="28.223"/><use xlink:href="#11" y="30.394"/><use xlink:href="#11" y="32.565"/><use xlink:href="#11" y="34.736"/><use xlink:href="#11" y="36.907"/><use xlink:href="#11" y="39.078"/><use xlink:href="#11" y="41.249"/><use xlink:href="#11" y="43.42"/><use xlink:href="#11" y="45.591"/><use xlink:href="#11" y="47.762"/><use xlink:href="#11" y="49.933"/><use xlink:href="#11" y="52.104"/><use xlink:href="#11" y="54.275"/><use xlink:href="#11" y="56.446"/><use xlink:href="#11" y="58.617"/><use xlink:href="#11" y="60.788"/><use xlink:href="#11" y="62.959"/></svg><svg x="2400"><use xlink:href="#a"/><use xlink:href="#b" x="-.004" y="30.369"/><use xlink:href="#11"/><use xlink:href="#12" y="2.171"/><use xlink:href="#11" y="4.342"/><use xlink:href="#13" y="6.513"/><use xlink:href="#11" y="8.684"/><use xlink:href="#14" y="10.855"/><use xlink:href="#15" y="13.026"/><use xlink:href="#16" y="15.197"/><use xlink:href="#11" y="17.368"/><use xlink:href="#17" y="19.539"/><use xlink:href="#18" y="21.71"/><use xlink:href="#11" y="23.881"/><use xlink:href="#19" y="26.052"/><use xlink:href="#20" y="28.223"/><use xlink:href="#11" y="30.394"/><use xlink:href="#11" y="32.565"/><use xlink:href="#11" y="34.736"/><use xlink:href="#11" y="36.907"/><use xlink:href="#11" y="39.078"/><use xlink:href="#11" y="41.249"/><use xlink:href="#11" y="43.42"/><use xlink:href="#11" y="45.591"/><use xlink:href="#11" y="47.762"/><use xlink:href="#11" y="49.933"/><use xlink:href="#11" y="52.104"/><use xlink:href="#11" y="54.275"/><use xlink:href="#11" y="56.446"/><use xlink:href="#11" y="58.617"/><use xlink:href="#11" y="60.788"/><use xlink:href="#11" y="62.959"/></svg><svg x="2520"><use xlink:href="#a"/><use xlink:href="#b" x="-.004" y="30.369"/><use xlink:href="#11"/><use xlink:href="#12" y="2.171"/><use xlink:href="#21" y="4.342"/><use xlink:href="#22" y="6.513"/><path class="g" d="M0 8.684h120v2.171H0z"/><text y="10.354" class="d">Writing request stream... (Number of bytes written: 1378)</text><use xlink:href="#21" y="10.855"/><use xlink:href="#15" y="13.026"/><use xlink:href="#16" y="15.197"/><use xlink:href="#11" y="17.368"/><use xlink:href="#17" y="19.539"/><use xlink:href="#18" y="21.71"/><use xlink:href="#11" y="23.881"/><use xlink:href="#19" y="26.052"/><use xlink:href="#20" y="28.223"/><use xlink:href="#11" y="30.394"/><use xlink:href="#11" y="32.565"/><use xlink:href="#11" y="34.736"/><use xlink:href="#11" y="36.907"/><use xlink:href="#11" y="39.078"/><use xlink:href="#11" y="41.249"/><use xlink:href="#11" y="43.42"/><use xlink:href="#11" y="45.591"/><use xlink:href="#11" y="47.762"/><use xlink:href="#11" y="49.933"/><use xlink:href="#11" y="52.104"/><use xlink:href="#11" y="54.275"/><use xlink:href="#11" y="56.446"/><use xlink:href="#11" y="58.617"/><use xlink:href="#11" y="60.788"/><use xlink:href="#11" y="62.959"/></svg><svg x="2640"><use xlink:href="#a"/><use xlink:href="#b" x="-.004" y="30.369"/><use xlink:href="#11"/><use xlink:href="#12" y="2.171"/><use xlink:href="#21" y="4.342"/><use xlink:href="#22" y="6.513"/><path class="g" d="M0 8.684h120v2.171H0z"/><text y="10.354" class="d">Writing request stream... (Number of bytes written: 4134)</text><use xlink:href="#21" y="10.855"/><use xlink:href="#15" y="13.026"/><use xlink:href="#16" y="15.197"/><use xlink:href="#11" y="17.368"/><use xlink:href="#17" y="19.539"/><use xlink:href="#18" y="21.71"/><use xlink:href="#11" y="23.881"/><use xlink:href="#19" y="26.052"/><use xlink:href="#20" y="28.223"/><use xlink:href="#11" y="30.394"/><use xlink:href="#11" y="32.565"/><use xlink:href="#11" y="34.736"/><use xlink:href="#11" y="36.907"/><use xlink:href="#11" y="39.078"/><use xlink:href="#11" y="41.249"/><use xlink:href="#11" y="43.42"/><use xlink:href="#11" y="45.591"/><use xlink:href="#11" y="47.762"/><use xlink:href="#11" y="49.933"/><use xlink:href="#11" y="52.104"/><use xlink:href="#11" y="54.275"/><use xlink:href="#11" y="56.446"/><use xlink:href="#11" y="58.617"/><use xlink:href="#11" y="60.788"/><use xlink:href="#11" y="62.959"/></svg><svg x="2760"><use xlink:href="#a"/><use xlink:href="#b" x="-.004" y="30.369"/><use xlink:href="#11"/><use xlink:href="#12" y="2.171"/><use xlink:href="#21" y="4.342"/><use xlink:href="#22" y="6.513"/><path class="g" d="M0 8.684h120v2.171H0z"/><text y="10.354" class="d">Writing request stream... (Number of bytes written: 8268)</text><use xlink:href="#21" y="10.855"/><use xlink:href="#15" y="13.026"/><use xlink:href="#16" y="15.197"/><use xlink:href="#11" y="17.368"/><use xlink:href="#17" y="19.539"/><use xlink:href="#18" y="21.71"/><use xlink:href="#11" y="23.881"/><use xlink:href="#19" y="26.052"/><use xlink:href="#20" y="28.223"/><use xlink:href="#11" y="30.394"/><use xlink:href="#11" y="32.565"/><use xlink:href="#11" y="34.736"/><use xlink:href="#11" y="36.907"/><use xlink:href="#11" y="39.078"/><use xlink:href="#11" y="41.249"/><use xlink:href="#11" y="43.42"/><use xlink:href="#11" y="45.591"/><use xlink:href="#11" y="47.762"/><use xlink:href="#11" y="49.933"/><use xlink:href="#11" y="52.104"/><use xlink:href="#11" y="54.275"/><use xlink:href="#11" y="56.446"/><use xlink:href="#11" y="58.617"/><use xlink:href="#11" y="60.788"/><use xlink:href="#11" y="62.959"/></svg><svg x="2880"><use xlink:href="#a"/><use xlink:href="#b" x="-.004" y="30.369"/><use xlink:href="#11"/><use xlink:href="#12" y="2.171"/><use xlink:href="#21" y="4.342"/><use xlink:href="#22" y="6.513"/><path class="g" d="M0 8.684h120v2.171H0z"/><text y="10.354" class="d">Writing request stream... (Number of bytes written: 11024)</text><use xlink:href="#21" y="10.855"/><use xlink:href="#15" y="13.026"/><use xlink:href="#16" y="15.197"/><use xlink:href="#11" y="17.368"/><use xlink:href="#17" y="19.539"/><use xlink:href="#18" y="21.71"/><use xlink:href="#11" y="23.881"/><use xlink:href="#19" y="26.052"/><use xlink:href="#20" y="28.223"/><use xlink:href="#11" y="30.394"/><use xlink:href="#11" y="32.565"/><use xlink:href="#11" y="34.736"/><use xlink:href="#11" y="36.907"/><use xlink:href="#11" y="39.078"/><use xlink:href="#11" y="41.249"/><use xlink:href="#11" y="43.42"/><use xlink:href="#11" y="45.591"/><use xlink:href="#11" y="47.762"/><use xlink:href="#11" y="49.933"/><use xlink:href="#11" y="52.104"/><use xlink:href="#11" y="54.275"/><use xlink:href="#11" y="56.446"/><use xlink:href="#11" y="58.617"/><use xlink:href="#11" y="60.788"/><use xlink:href="#11" y="62.959"/></svg><svg x="3000"><use xlink:href="#a"/><use xlink:href="#b" x="-.004" y="30.369"/><use xlink:href="#11"/><use xlink:href="#12" y="2.171"/><use xlink:href="#21" y="4.342"/><use xlink:href="#22" y="6.513"/><path class="g" d="M0 8.684h120v2.171H0z"/><text y="10.354" class="d">Writing request stream... (Number of bytes written: 13780)</text><use xlink:href="#21" y="10.855"/><use xlink:href="#15" y="13.026"/><use xlink:href="#16" y="15.197"/><use xlink:href="#11" y="17.368"/><use xlink:href="#17" y="19.539"/><use xlink:href="#18" y="21.71"/><use xlink:href="#11" y="23.881"/><use xlink:href="#19" y="26.052"/><use xlink:href="#20" y="28.223"/><use xlink:href="#11" y="30.394"/><use xlink:href="#11" y="32.565"/><use xlink:href="#11" y="34.736"/><use xlink:href="#11" y="36.907"/><use xlink:href="#11" y="39.078"/><use xlink:href="#11" y="41.249"/><use xlink:href="#11" y="43.42"/><use xlink:href="#11" y="45.591"/><use xlink:href="#11" y="47.762"/><use xlink:href="#11" y="49.933"/><use xlink:href="#11" y="52.104"/><use xlink:href="#11" y="54.275"/><use xlink:href="#11" y="56.446"/><use xlink:href="#11" y="58.617"/><use xlink:href="#11" y="60.788"/><use xlink:href="#11" y="62.959"/></svg><svg x="3120"><use xlink:href="#a"/><use xlink:href="#b" x="-.004" y="30.369"/><use xlink:href="#11"/><use xlink:href="#12" y="2.171"/><use xlink:href="#21" y="4.342"/><use xlink:href="#22" y="6.513"/><path class="g" d="M0 8.684h120v2.171H0z"/><text y="10.354" class="d">Writing request stream... (Number of bytes written: 16204)</text><use xlink:href="#21" y="10.855"/><use xlink:href="#15" y="13.026"/><use xlink:href="#16" y="15.197"/><use xlink:href="#11" y="17.368"/><use xlink:href="#17" y="19.539"/><use xlink:href="#18" y="21.71"/><use xlink:href="#11" y="23.881"/><use xlink:href="#19" y="26.052"/><use xlink:href="#20" y="28.223"/><use xlink:href="#11" y="30.394"/><use xlink:href="#11" y="32.565"/><use xlink:href="#11" y="34.736"/><use xlink:href="#11" y="36.907"/><use xlink:href="#11" y="39.078"/><use xlink:href="#11" y="41.249"/><use xlink:href="#11" y="43.42"/><use xlink:href="#11" y="45.591"/><use xlink:href="#11" y="47.762"/><use xlink:href="#11" y="49.933"/><use xlink:href="#11" y="52.104"/><use xlink:href="#11" y="54.275"/><use xlink:href="#11" y="56.446"/><use xlink:href="#11" y="58.617"/><use xlink:href="#11" y="60.788"/><use xlink:href="#11" y="62.959"/></svg><svg x="3240"><use xlink:href="#a"/><use xlink:href="#b" x="-.004" y="30.369"/><use xlink:href="#11"/><use xlink:href="#12" y="2.171"/><use xlink:href="#21" y="4.342"/><use xlink:href="#22" y="6.513"/><path class="g" d="M0 8.684h120v2.171H0z"/><text y="10.354" class="d">Writing request stream... (Number of bytes written: 18960)</text><use xlink:href="#21" y="10.855"/><use xlink:href="#15" y="13.026"/><use xlink:href="#16" y="15.197"/><use xlink:href="#11" y="17.368"/><use xlink:href="#17" y="19.539"/><use xlink:href="#18" y="21.71"/><use xlink:href="#11" y="23.881"/><use xlink:href="#19" y="26.052"/><use xlink:href="#20" y="28.223"/><use xlink:href="#11" y="30.394"/><use xlink:href="#11" y="32.565"/><use xlink:href="#11" y="34.736"/><use xlink:href="#11" y="36.907"/><use xlink:href="#11" y="39.078"/><use xlink:href="#11" y="41.249"/><use xlink:href="#11" y="43.42"/><use xlink:href="#11" y="45.591"/><use xlink:href="#11" y="47.762"/><use xlink:href="#11" y="49.933"/><use xlink:href="#11" y="52.104"/><use xlink:href="#11" y="54.275"/><use xlink:href="#11" y="56.446"/><use xlink:href="#11" y="58.617"/><use xlink:href="#11" y="60.788"/><use xlink:href="#11" y="62.959"/></svg><svg x="3360"><use xlink:href="#a"/><use xlink:href="#b" x="-.004" y="30.369"/><use xlink:href="#11"/><use xlink:href="#12" y="2.171"/><use xlink:href="#21" y="4.342"/><use xlink:href="#22" y="6.513"/><path class="g" d="M0 8.684h120v2.171H0z"/><text y="10.354" class="d">Writing request stream... (Number of bytes written: 23094)</text><use xlink:href="#21" y="10.855"/><use xlink:href="#15" y="13.026"/><use xlink:href="#16" y="15.197"/><use xlink:href="#11" y="17.368"/><use xlink:href="#17" y="19.539"/><use xlink:href="#18" y="21.71"/><use xlink:href="#11" y="23.881"/><use xlink:href="#19" y="26.052"/><use xlink:href="#20" y="28.223"/><use xlink:href="#11" y="30.394"/><use xlink:href="#11" y="32.565"/><use xlink:href="#11" y="34.736"/><use xlink:href="#11" y="36.907"/><use xlink:href="#11" y="39.078"/><use xlink:href="#11" y="41.249"/><use xlink:href="#11" y="43.42"/><use xlink:href="#11" y="45.591"/><use xlink:href="#11" y="47.762"/><use xlink:href="#11" y="49.933"/><use xlink:href="#11" y="52.104"/><use xlink:href="#11" y="54.275"/><use xlink:href="#11" y="56.446"/><use xlink:href="#11" y="58.617"/><use xlink:href="#11" y="60.788"/><use xlink:href="#11" y="62.959"/></svg><svg x="3480"><use xlink:href="#a"/><use xlink:href="#b" x="-.004" y="30.369"/><use xlink:href="#11"/><use xlink:href="#12" y="2.171"/><use xlink:href="#21" y="4.342"/><use xlink:href="#22" y="6.513"/><path class="g" d="M0 8.684h120v2.171H0z"/><text y="10.354" class="d">Writing request stream... (Number of bytes written: 25850)</text><use xlink:href="#21" y="10.855"/><use xlink:href="#15" y="13.026"/><use xlink:href="#16" y="15.197"/><use xlink:href="#11" y="17.368"/><use xlink:href="#17" y="19.539"/><use xlink:href="#18" y="21.71"/><use xlink:href="#11" y="23.881"/><use xlink:href="#19" y="26.052"/><use xlink:href="#20" y="28.223"/><use xlink:href="#11" y="30.394"/><use xlink:href="#11" y="32.565"/><use xlink:href="#11" y="34.736"/><use xlink:href="#11" y="36.907"/><use xlink:href="#11" y="39.078"/><use xlink:href="#11" y="41.249"/><use xlink:href="#11" y="43.42"/><use xlink:href="#11" y="45.591"/><use xlink:href="#11" y="47.762"/><use xlink:href="#11" y="49.933"/><use xlink:href="#11" y="52.104"/><use xlink:href="#11" y="54.275"/><use xlink:href="#11" y="56.446"/><use xlink:href="#11" y="58.617"/><use xlink:href="#11" y="60.788"/><use xlink:href="#11" y="62.959"/></svg><svg x="3600"><use xlink:href="#a"/><use xlink:href="#b" x="-.004" y="30.369"/><use xlink:href="#11"/><use xlink:href="#12" y="2.171"/><use xlink:href="#21" y="4.342"/><use xlink:href="#22" y="6.513"/><path class="g" d="M0 8.684h120v2.171H0z"/><text y="10.354" class="d">Writing request stream... (Number of bytes written: 28606)</text><use xlink:href="#21" y="10.855"/><use xlink:href="#15" y="13.026"/><use xlink:href="#16" y="15.197"/><use xlink:href="#11" y="17.368"/><use xlink:href="#17" y="19.539"/><use xlink:href="#18" y="21.71"/><use xlink:href="#11" y="23.881"/><use xlink:href="#19" y="26.052"/><use xlink:href="#20" y="28.223"/><use xlink:href="#11" y="30.394"/><use xlink:href="#11" y="32.565"/><use xlink:href="#11" y="34.736"/><use xlink:href="#11" y="36.907"/><use xlink:href="#11" y="39.078"/><use xlink:href="#11" y="41.249"/><use xlink:href="#11" y="43.42"/><use xlink:href="#11" y="45.591"/><use xlink:href="#11" y="47.762"/><use xlink:href="#11" y="49.933"/><use xlink:href="#11" y="52.104"/><use xlink:href="#11" y="54.275"/><use xlink:href="#11" y="56.446"/><use xlink:href="#11" y="58.617"/><use xlink:href="#11" y="60.788"/><use xlink:href="#11" y="62.959"/></svg><svg x="3720"><use xlink:href="#a"/><use xlink:href="#b" x="-.004" y="30.369"/><use xlink:href="#11"/><use xlink:href="#12" y="2.171"/><use xlink:href="#21" y="4.342"/><use xlink:href="#22" y="6.513"/><path class="g" d="M0 8.684h120v2.171H0z"/><text y="10.354" class="d">Writing request stream... (Number of bytes written: 31362)</text><use xlink:href="#21" y="10.855"/><use xlink:href="#15" y="13.026"/><use xlink:href="#16" y="15.197"/><use xlink:href="#11" y="17.368"/><use xlink:href="#17" y="19.539"/><use xlink:href="#18" y="21.71"/><use xlink:href="#11" y="23.881"/><use xlink:href="#19" y="26.052"/><use xlink:href="#20" y="28.223"/><use xlink:href="#11" y="30.394"/><use xlink:href="#11" y="32.565"/><use xlink:href="#11" y="34.736"/><use xlink:href="#11" y="36.907"/><use xlink:href="#11" y="39.078"/><use xlink:href="#11" y="41.249"/><use xlink:href="#11" y="43.42"/><use xlink:href="#11" y="45.591"/><use xlink:href="#11" y="47.762"/><use xlink:href="#11" y="49.933"/><use xlink:href="#11" y="52.104"/><use xlink:href="#11" y="54.275"/><use xlink:href="#11" y="56.446"/><use xlink:href="#11" y="58.617"/><use xlink:href="#11" y="60.788"/><use xlink:href="#11" y="62.959"/></svg><svg x="3840"><use xlink:href="#a"/><use xlink:href="#b" x="-.004" y="30.369"/><use xlink:href="#11"/><use xlink:href="#12" y="2.171"/><use xlink:href="#21" y="4.342"/><use xlink:href="#22" y="6.513"/><path class="g" d="M0 8.684h120v2.171H0z"/><text y="10.354" class="d">Writing request stream... (Number of bytes written: 35496)</text><use xlink:href="#21" y="10.855"/><use xlink:href="#15" y="13.026"/><use xlink:href="#16" y="15.197"/><use xlink:href="#11" y="17.368"/><use xlink:href="#17" y="19.539"/><use xlink:href="#18" y="21.71"/><use xlink:href="#11" y="23.881"/><use xlink:href="#19" y="26.052"/><use xlink:href="#20" y="28.223"/><use xlink:href="#11" y="30.394"/><use xlink:href="#11" y="32.565"/><use xlink:href="#11" y="34.736"/><use xlink:href="#11" y="36.907"/><use xlink:href="#11" y="39.078"/><use xlink:href="#11" y="41.249"/><use xlink:href="#11" y="43.42"/><use xlink:href="#11" y="45.591"/><use xlink:href="#11" y="47.762"/><use xlink:href="#11" y="49.933"/><use xlink:href="#11" y="52.104"/><use xlink:href="#11" y="54.275"/><use xlink:href="#11" y="56.446"/><use xlink:href="#11" y="58.617"/><use xlink:href="#11" y="60.788"/><use xlink:href="#11" y="62.959"/></svg><svg x="3960"><use xlink:href="#a"/><use xlink:href="#b" x="-.004" y="30.369"/><use xlink:href="#11"/><use xlink:href="#12" y="2.171"/><use xlink:href="#11" y="4.342"/><use xlink:href="#13" y="6.513"/><use xlink:href="#11" y="8.684"/><use xlink:href="#14" y="10.855"/><use xlink:href="#15" y="13.026"/><use xlink:href="#16" y="15.197"/><use xlink:href="#11" y="17.368"/><use xlink:href="#17" y="19.539"/><use xlink:href="#18" y="21.71"/><use xlink:href="#11" y="23.881"/><use xlink:href="#19" y="26.052"/><use xlink:href="#20" y="28.223"/><use xlink:href="#11" y="30.394"/><use xlink:href="#11" y="32.565"/><use xlink:href="#11" y="34.736"/><use xlink:href="#11" y="36.907"/><use xlink:href="#11" y="39.078"/><use xlink:href="#11" y="41.249"/><use xlink:href="#11" y="43.42"/><use xlink:href="#11" y="45.591"/><use xlink:href="#11" y="47.762"/><use xlink:href="#11" y="49.933"/><use xlink:href="#11" y="52.104"/><use xlink:href="#11" y="54.275"/><use xlink:href="#11" y="56.446"/><use xlink:href="#11" y="58.617"/><use xlink:href="#11" y="60.788"/><use xlink:href="#11" y="62.959"/></svg><svg x="4080"><use xlink:href="#a"/><use xlink:href="#b" x="-.004" y="30.369"/><use xlink:href="#11"/><use xlink:href="#12" y="2.171"/><use xlink:href="#11" y="4.342"/><use xlink:href="#13" y="6.513"/><use xlink:href="#11" y="8.684"/><use xlink:href="#14" y="10.855"/><use xlink:href="#15" y="13.026"/><use xlink:href="#16" y="15.197"/><use xlink:href="#11" y="17.368"/><use xlink:href="#17" y="19.539"/><use xlink:href="#18" y="21.71"/><use xlink:href="#11" y="23.881"/><use xlink:href="#19" y="26.052"/><use xlink:href="#20" y="28.223"/><use xlink:href="#11" y="30.394"/><use xlink:href="#11" y="32.565"/><use xlink:href="#11" y="34.736"/><use xlink:href="#11" y="36.907"/><use xlink:href="#11" y="39.078"/><use xlink:href="#11" y="41.249"/><use xlink:href="#11" y="43.42"/><use xlink:href="#11" y="45.591"/><use xlink:href="#11" y="47.762"/><use xlink:href="#11" y="49.933"/><use xlink:href="#11" y="52.104"/><use xlink:href="#11" y="54.275"/><use xlink:href="#11" y="56.446"/><use xlink:href="#11" y="58.617"/><use xlink:href="#11" y="60.788"/><use xlink:href="#11" y="62.959"/></svg><svg x="4200"><use xlink:href="#a"/><use xlink:href="#b" x="-.004" y="30.369"/><use xlink:href="#11"/><use xlink:href="#11" y="2.171"/><use xlink:href="#11" y="4.342"/><use xlink:href="#11" y="6.513"/><use xlink:href="#11" y="8.684"/><use xlink:href="#11" y="10.855"/><use xlink:href="#11" y="13.026"/><use xlink:href="#11" y="15.197"/><use xlink:href="#11" y="17.368"/><use xlink:href="#11" y="19.539"/><use xlink:href="#11" y="21.71"/><use xlink:href="#11" y="23.881"/><use xlink:href="#11" y="26.052"/><use xlink:href="#11" y="28.223"/><use xlink:href="#11" y="30.394"/><use xlink:href="#11" y="32.565"/><use xlink:href="#11" y="34.736"/><use xlink:href="#11" y="36.907"/><use xlink:href="#11" y="39.078"/><use xlink:href="#11" y="41.249"/><use xlink:href="#11" y="43.42"/><use xlink:href="#11" y="45.591"/><use xlink:href="#11" y="47.762"/><use xlink:href="#11" y="49.933"/><use xlink:href="#11" y="52.104"/><use xlink:href="#11" y="54.275"/><use xlink:href="#11" y="56.446"/><use xlink:href="#11" y="58.617"/><use xlink:href="#11" y="60.788"/><use xlink:href="#11" y="62.959"/></svg><svg x="4320"><use xlink:href="#a"/><use xlink:href="#b" x="-.004" y="4.317"/><use xlink:href="#23" y="2.171"/></svg><svg x="4440"><use xlink:href="#a"/><use xlink:href="#b" x="-.004" y="4.317"/><use xlink:href="#23" y="2.171"/></svg><svg x="4560"><use xlink:href="#a"/><use xlink:href="#b" x="-.004" y="23.856"/><use xlink:href="#23" y="2.171"/><use xlink:href="#24" y="8.684"/><use xlink:href="#25" y="10.855"/><use xlink:href="#26" y="13.026"/><use xlink:href="#27" y="17.368"/><use xlink:href="#28" y="19.539"/></svg><svg x="4680"><use xlink:href="#a"/><use xlink:href="#b" x="31.996" y="26.027"/><use xlink:href="#23" y="2.171"/><use xlink:href="#24" y="8.684"/><use xlink:href="#25" y="10.855"/><use xlink:href="#26" y="13.026"/><use xlink:href="#27" y="17.368"/><use xlink:href="#28" y="19.539"/><use xlink:href="#29" y="26.052"/></svg><svg x="4800"><use xlink:href="#a"/><use xlink:href="#b" x="31.996" y="26.027"/><use xlink:href="#23" y="2.171"/><use xlink:href="#24" y="8.684"/><use xlink:href="#25" y="10.855"/><use xlink:href="#26" y="13.026"/><use xlink:href="#27" y="17.368"/><use xlink:href="#28" y="19.539"/><use xlink:href="#29" y="26.052"/></svg></svg></g></g></svg></svg>